<?xml version="1.0" encoding="UTF-8"?>
<svg id="Layer_5" data-name="Layer 5" xmlns="http://www.w3.org/2000/svg" viewBox="0 0 400 400">
  <defs>
    <style>
      .cls-1 {
        fill: #f3d6a9;
      }
    </style>
  </defs>
  <path class="cls-1" d="M280.4,224.08s-16.85-9.7,86.04,24.26c0,0-41.11-68.68-131.74-80.17l22.47,31.2s-50.41-5.66-78.5,3.57c-.12-.25-.18-.39-.18-.39-5.36-4.6-6.47,0-6.47,0-13.11-11.06-17.87,2.55-17.87,2.55-11.06-1.87-2.38,10.38-2.38,10.38,19.74,24.17,18.89,35.91,18.89,35.91,3.57,32.34,15.32,27.4,15.32,27.4,21.58-7.14.7-57.99-5.74-72.43,19.95,1.04,67.58,9.7,116.76,63.92,0,0-8.43-39.83-16.6-46.21ZM181.46,244.81c4.3-.97,8.85,2.95,10.17,8.76,1.32,5.81-1.1,11.31-5.4,12.28-4.3.97-8.85-2.95-10.17-8.76-1.32-5.81,1.1-11.31,5.4-12.28Z"/>
  <path class="cls-1" d="M159.14,129.53c-2.42-7.91-10.03-12.59-17-10.46-6.97,2.13-10.65,10.27-8.23,18.18,2.42,7.91,10.03,12.59,17,10.46,6.97-2.13,10.65-10.27,8.23-18.18Z"/>
  <ellipse class="cls-1" cx="72.05" cy="140.49" rx="10" ry="14.98"/>
  <path class="cls-1" d="M101.4,164.41c-49.68,5.15-41.59,59.72-39.62,80.27,7.46,17.54,22.39,29.51,39.62,29.51s31.64-11.56,39.22-28.59c-3.74-4.41-6.12-10.94-6.12-18.23,0-9.65,4.16-17.98,10.16-21.81-4.97-23.67-22.57-43.3-43.27-41.15Z"/>
  <path class="cls-1" d="M156.2,112.38s27.9-5.07,30.36-16.56c2.47-11.49,30.13-11.06,21.87-.09-8.26,10.98-10.64-1.19-10.64-1.19.77,18.98,13.62,1.96,13.62,1.96,4.94-18.04-20.26-12.94-20.26-12.94-8.85-19.06,30.64-36.6,30.64-36.6-.23.03-.46.06-.69.1-83.19,11.69-79.44,51.23-78.22,52.03,9.26,6.09,13.31,13.28,13.31,13.28Z"/>
  <path class="cls-1" d="M68.48,118.56s11.77-17.41,15.69-18.44c0,0-20.72-55.53-42.03-63.19,0,0,20.68,39.57,6.77,48.64,0,0-20.55-13.28-20.04,5.11.51,18.38,21.45,10.17,11.49-.66,0,0,1.15,9.09-3.96,7.3-5.11-1.79-.13-10.6-.13-10.6,0,0,9.96-1.02,14.81,9.57,4.85,10.6,8.89,23.35,17.4,22.27Z"/>
</svg>