<?xml version="1.0" encoding="UTF-8"?>
<svg id="Layer_8" data-name="Layer 8" xmlns="http://www.w3.org/2000/svg" viewBox="0 0 400 400">
  <defs>
    <style>
      .cls-1 {
        fill: #252525;
      }
    </style>
  </defs>
  <path class="cls-1" d="M208.61,110.63s4.85-5.62,5.02-8.51c.17-2.89-5.36-7.74-5.36-7.74l6.04-15.06s3.57-7.83-13.53,4.85c0,0-.85,8.51-.43,11.91,0,0-11.74,9.53-13.53,14.98-1.12,3.4-1.73,9.35-2.04,13.35h5.43s5.32-9.62,11.28-8.47c3.21.62,6.07,2.87,8.03,4.82.04-4.66-.2-8.4-.92-10.12Z"/>
  <path class="cls-1" d="M302.61,207.93s-8.94-8.55-9.38-10.72c-.45-2.17-8.4-17.81-14.53-18.49-3.22-.36-8.74-.15-13.25.12l8.43,7.54s-6.51,3.38-6.03,7.79c.14,1.29.41,2.98.72,4.72,1.5-.6,2.77-1,3.73-1.11,8.87-1.02,22.34,14.49,27.83,19.15,5.49,4.66,2.49-9,2.49-9Z"/>
  <polygon class="cls-1" points="129.33 307.95 108.08 316.24 129.78 314.97 129.78 319.24 139.31 316.14 137.33 311.18 129.33 307.95"/>
  <polygon class="cls-1" points="154.52 315.31 158.69 320.04 167.21 315.75 161.08 312.97 154.52 315.31"/>
  <polygon class="cls-1" points="181.14 317.7 190.61 321.77 195.09 316.75 185.72 313.99 181.14 317.7"/>
  <polygon class="cls-1" points="215.59 313.61 216.12 317.62 229 320.58 228.65 313.67 215.59 313.61"/>
  <path class="cls-1" d="M183.62,183.11c.2-1.97-.7-3.73-1.64-5.07-.11-1.19-.55-2.18-1.29-2.91-.68-.67-1.59-1.11-2.86-1.38-2.38-.51-4.91-.28-7.15.67-1.07.45-2.12,1.07-3.32,1.96-1.53.85-2.73,2.01-3.45,3.38-.03.05-.05.11-.08.16-.83,1.37-1.34,3.03-1.5,4.87-.17,1.91.02,3.77.37,5.98.08.55.6.92,1.14.84.15-.02.28-.08.39-.15.35.8.8,1.55,1.41,2.21.24.26.58.58,1.06.74.22.07.43.1.63.1.47,0,.89-.15,1.15-.24,1.23-.44,2.43-.97,3.59-1.57,3.84-.76,7.28-2.72,9.65-5.59,1.14-1.38,1.76-2.69,1.89-4ZM177.85,178.76c-.05.38-.28.81-.55,1.21-.13-.13-.26-.25-.39-.37-.28-.25-.61-.52-.98-.73.57-.18,1.14-.32,1.64-.42.08.05.17.15.28.3ZM176.05,181.56c-1.56,1.83-3.15,3.23-4.81,4.21,0-.27,0-.54,0-.82.02-.65.06-1.22.16-1.74.71-.84,1.5-1.6,2.36-2.28.26-.21.56-.42.78-.43.33-.03.74.33,1.03.59.16.15.33.3.47.46ZM166.52,186.65c.04.28.11.54.21.78-.42,1.27-.59,2.44-.51,3.54-.6-1.24-.86-2.73-1.05-4.2-.26-2.05-.38-4.17.44-5.88.15-.24.31-.47.49-.69.52-.64,1.18-1.19,1.76-1.66.21-.16.41-.32.6-.47.46-.25.96-.46,1.5-.64,1.88-.62,3.94-.74,5.94-.87.19-.01.38-.02.57-.03-.25.07-.48.15-.7.24-.19.08-.38.16-.57.24-.69.23-1.4.52-2.08.9-.72.41-1.36.9-1.9,1.46-1.07.82-2.06,1.75-2.94,2.78-1.38,1.61-1.96,3.08-1.77,4.5ZM169.3,186.72c-.06.02-.11.04-.15.05.04-.09.09-.18.13-.27,0,.08.01.15.02.23ZM171.46,190.76c-1.05.2-2.15.3-3.23.29-.08-.69-.02-1.44.18-2.25.53.08,1.05-.02,1.42-.15.12.24.26.47.43.69.41.55.93.95,1.4,1.31-.07.04-.13.07-.2.11ZM178.38,184.09c-.33.65-.7,1.28-1.11,1.89-.42.63-.85,1.17-1.28,1.63-.43.41-.9.81-1.42,1.2-.28.18-.56.33-.85.45-.28.12-.36.11-.38.11-.07-.01-.28-.17-.38-.24-.43-.32-.83-.63-1.1-.99-.07-.1-.14-.2-.2-.31,1.54-.83,3.02-1.95,4.45-3.38.01,0,.03,0,.04,0,.57.07,1.16-.14,1.59-.59.5-.52.75-1.27.64-1.97,0,0,0-.02,0-.02.09-.11.18-.23.27-.34.04-.06.08-.11.12-.17.06.88-.06,1.82-.38,2.72ZM181.63,182.91c-.09.91-.57,1.86-1.44,2.93-.32.39-.67.75-1.03,1.1.25-.37.47-.75.67-1.14.15-.3.29-.61.4-.92.53-1.05.97-2.14,1.31-3.27.11.45.14.88.1,1.3Z"/>
  <path class="cls-1" d="M227.61,192.59c-.81-.55-1.85-.22-2.59.82-.35.5-.69,1.01-1,1.54-.29-.72-.62-1.4-.99-2.04-.43-.72-1.13-1.74-2.26-2.18-.96-.38-1.96-.25-2.81-.07-3.98.82-7.71,3.12-10.24,6.3-.95,1.2-1.58,2.33-1.92,3.46-1.24,1.12-2.02,2.22-2.46,3.41-.29.79-.44,1.69-.47,2.82-.08,2.6.44,5.23,1.5,7.61.25.55.56,1.1,1.16,1.44.44.25.91.29,1.29.29.12,0,.23,0,.33,0,1.45-.06,2.95-.15,4.44-.36.28,0,.53-.03.75-.06.55-.08,1.11-.2,1.66-.37,1.06-.24,2.12-.56,3.15-.99,2.76-1.13,4.99-2.93,6.38-5.1.03-.02.05-.05.08-.07.68-.61,1.18-1.23,1.51-1.87.87-1.01,1.66-2.09,2.38-3.22.74-1.17,1.61-2.73,1.87-4.55.26-1.83-.11-3.84-1.12-5.98-.09-.2-.27-.57-.65-.83ZM207.58,201.51c.4-.33.81-.64,1.23-.94-.28,1.13-.36,2.35-.22,3.59-.13.39-.25.79-.34,1.2-.1.48-.18.97-.22,1.47,0,.02-.02.04-.03.06-.23-.86-.39-1.74-.48-2.64-.11-1.1-.1-1.98.06-2.75ZM207.08,213.98c-.15,0-.48.02-.57-.03-.07-.04-.18-.21-.31-.51-.94-2.1-1.4-4.43-1.33-6.73.03-.92.14-1.62.35-2.2.07-.2.16-.4.27-.6.01.18.03.37.05.56.21,1.98.71,3.9,1.49,5.67-.05.45-.07.91-.02,1.38.07.72.28,1.26.65,1.67.37.4.83.6,1.27.7-.62.04-1.23.07-1.84.1ZM210.5,211.95c-.25-1.05-.41-2.02-.48-2.92.46,1,.97,1.95,1.47,2.83-.33.03-.66.06-.99.08ZM218.04,210.13c-1.42.62-2.9,1.09-4.42,1.4-.08-.13-.16-.26-.23-.39-.94-1.65-1.95-3.52-2.48-5.51.85-1.42,1.88-2.74,3.05-3.9.52-.51,1-.91,1.46-1.19.46-.06.96-.1,1.53-.1.36,0,.71.01,1.04.04-1.28.35-2.46,1.03-3.4,1.99-1.74,1.79-2.47,4.41-1.92,6.84.04.17.13.58.47.89.39.37.92.48,1.59.34,1.97-.43,3.72-1.52,4.87-3.02-.4.96-.93,1.83-1.55,2.58ZM218.99,202.32c.21,1.07.04,2.25-.5,3.26-.76,1.43-2.22,2.52-3.94,2.96-.26-1.66.3-3.46,1.47-4.67.79-.81,1.85-1.35,2.97-1.56ZM219.04,198.6c-.17-.13-.35-.23-.54-.32-.46-.21-.98-.3-1.56-.28-.81.03-1.55.28-2.21.63-.6.11-1.15.27-1.66.49-.8.33-1.53.82-2.17,1.42.17-.53.4-1.05.71-1.53,2.52-1.11,5.31-1.62,8.08-1.43.11,0,.3.02.42.06.2.34.35.76.45,1.28-.48-.14-.98-.25-1.51-.33ZM222.64,197.78c-.12-.25-.25-.5-.4-.74-.17-.28-.4-.6-.73-.87-.18-.23-.39-.45-.64-.65-.83-.67-1.96-1.02-3.44-1.07-1.61-.05-3.97.2-5.89,1.7-.47.36-.88.79-1.25,1.27-.21.1-.43.21-.63.32,2.22-2.58,5.36-4.43,8.69-5.12.56-.12,1.2-.21,1.68-.02.56.22.99.87,1.27,1.34.63,1.06,1.11,2.27,1.45,3.58-.04.09-.07.18-.11.27ZM227.4,199.11c-.21,1.44-.96,2.77-1.58,3.76-.12.2-.25.39-.38.58-.04-.15-.09-.29-.15-.44,0-.24.01-.5.02-.75,0-1.6-.15-3.14-.45-4.57.49-1.08,1.08-2.12,1.76-3.08.72,1.64.98,3.15.79,4.5Z"/>
  <path class="cls-1" d="M183.32,278.2c.16,4.11,1.21,7.41,2.35,7.36,1.14-.04,1.93-3.41,1.77-7.52-.16-4.11-1.21-7.41-2.35-7.36-1.14.04-1.93,3.41-1.77,7.52Z"/>
  <path class="cls-1" d="M166.53,271.4c-1.14.04-1.93,3.41-1.77,7.52.16,4.11,1.21,7.41,2.35,7.36s1.93-3.41,1.77-7.52c-.16-4.11-1.21-7.41-2.35-7.36Z"/>
</svg>