<?xml version="1.0" encoding="UTF-8"?>
<svg id="Layer_5" data-name="Layer 5" xmlns="http://www.w3.org/2000/svg" viewBox="0 0 400 400">
  <defs>
    <style>
      .cls-1 {
        fill: #513a29;
      }
    </style>
  </defs>
  <path class="cls-1" d="M50.02,55.62s18.8,14.87,18.46,62.94c0,0,11.77-17.41,15.69-18.44,0,0-20.72-55.53-42.03-63.19,0,0,4.49,8.6,7.88,18.69h0Z"/>
  <path class="cls-1" d="M207.67,54.89c7.33-4.9,14.13-7.92,14.13-7.92-.23.03-.46.06-.69.1-83.19,11.69-79.44,51.23-78.22,52.03,9.26,6.09,13.31,13.28,13.31,13.28,0,0,2.02-.37,5-1.12-.76-1.16-1.4-2.52-1.91-4.12-8.79-27.73,29.76-45.44,48.38-52.25Z"/>
  <path class="cls-1" d="M132.15,118.56c4.38,0,7.92-3.55,7.92-7.92,0-2.66-1.32-5.01-3.33-6.45.59,1,.87,2.19.7,3.43-.4,2.92-3.08,4.97-6,4.57-2.92-.4-4.97-3.08-4.57-6,.1-.73.34-1.4.69-1.99-2.01,1.44-3.32,3.78-3.32,6.44,0,4.38,3.55,7.92,7.92,7.92Z"/>
  <path class="cls-1" d="M80.46,115.67c-2.12-1.04-2.92-4.08-1.79-6.79.28-.67.65-1.26,1.09-1.76-1.94.93-3.61,2.88-4.36,5.43-1.24,4.2.46,8.4,3.8,9.38,3.34.99,7.05-1.62,8.29-5.81.75-2.55.42-5.1-.71-6.94.17,1.09.04,2.3-.44,3.45-1.13,2.71-3.76,4.07-5.88,3.03Z"/>
  <path class="cls-1" d="M187.34,161.76l-14.86,10.66,6.98,9.45-4.43,4,4.97,8.76c9.78-.32,25-2.68,31.18-13.71,0,0,4.28-13.71-23.84-19.15Z"/>
  <path class="cls-1" d="M38.78,182.71l10.3-6.13-7.57-8.94c-11.12.67-21.13,2.74-24.6,7.65,0,0-5.54,13.27,29.3,24.71-2.95-2.72-9.93-10.11-7.43-17.29Z"/>
  <path class="cls-1" d="M130.2,272.8s12.45,5.91,6.33,23.79c-6.13,17.87-15.92,21.19-15.92,21.19,0,0,.34,8.64-.62,11.22-.03.07-.03.12-.03.16.24-2.35.42-4.86.53-7.55-19.92,21.96-26.04,19.64-27.63,13.68-.16.28-.32.57-.49.84,0,0-.48.36-1.21,1,3.03-3.61,4.64-8.77,4.64-8.77-73.02,11.97-25.55-56.77-25.55-56.77l-2.91-5.31s-19.28,12.45-19.79,45c-.51,32.55,36.77,31.15,41.29,28.02,0,0,0,0,0,0-4.26,4.31-10.11,12.21-3.78,18.54,0,0,2.04,8.17,9.7,4.09,0,0,21.18,6.85,25.21-32.74.36,1.16,19.88-17.64,23.96-29.14,4.21-11.87,1.49-32.98,1.49-32.98,0,0-10.04,1.8-15.22,5.74Z"/>
</svg>