<?xml version="1.0" encoding="UTF-8"?>
<svg id="Layer_8" data-name="Layer 8" xmlns="http://www.w3.org/2000/svg" viewBox="0 0 400 400">
  <defs>
    <style>
      .cls-1 {
        fill: #c37629;
      }
    </style>
  </defs>
  <path class="cls-1" d="M159,189.1c-.02-1.77-.18-3.52-.46-5.19-.08-.5-.56-.87-1.04-.83-.51.03-.91.44-.94.95-.04.75-.07,1.49-.09,2.24-.64-1.36-1.34-2.69-2.11-3.97-.24-.4-.72-.58-1.17-.44-.44.14-.73.57-.69,1.04.07.85.18,1.7.31,2.54l-.8-1.16c-.23-.33-.64-.5-1.03-.41-.4.08-.7.4-.78.79-.03.15-.06.31-.08.46-.11-.15-.22-.29-.32-.44-.25-.34-.7-.48-1.1-.36-.41.13-.69.5-.7.93-.01.44,0,.87.03,1.3-.07,0-.15,0-.23.01-.42.07-.74.39-.82.8-.35,1.86-.55,3.74-.61,5.63-.29,2.73.23,5.48.69,7.94.09.48.51.81.98.81.06,0,.12,0,.19-.02.54-.1.9-.63.8-1.17-.16-.86-.33-1.72-.46-2.59,0-.07,0-.14,0-.21-.1-.9-.17-1.81-.19-2.72.64.81,1.27,1.65,1.87,2.49.06.3.12.59.18.89.1.46.5.77.96.78.12.18.23.35.34.53.26.4.75.56,1.2.39.44-.17.71-.62.63-1.09-.33-2.09-1.06-4.08-1.76-6.01-.04-.12-.09-.24-.13-.36-.04-.7-.05-1.4-.04-2.1,1.65,2.28,3.28,4.58,4.86,6.87.27.39.79.54,1.22.35.44-.19.68-.67.57-1.14-.2-.89-.54-1.72-.87-2.52.11-.06.21-.13.29-.23,1.18-1.36,1.33-3.19,1.31-4.8ZM148.42,191.94c.02-.33.04-.66.07-.99.26.63.49,1.27.71,1.92-.26-.31-.52-.62-.78-.93Z"/>
  <path class="cls-1" d="M218.59,233.56c.52-.07.9-.53.87-1.06-.04-.52-.47-.93-1-.93h0l-12.46.03c1.29-.44,2.7-.77,4.23-.99,2.05.13,4.12.02,6.13-.33.51-.09.86-.55.83-1.06,0-.03,0-.07-.01-.1.36-.1.73-.23,1.07-.42.34-.18.55-.55.53-.94-.03-.39-.28-.73-.64-.87-.35-.13-.7-.26-1.06-.38l4.27-.3c.47-.03.85-.39.92-.86.07-.47-.2-.92-.64-1.08-3.7-1.37-7.74-2-11.7-1.81-.52.02-.93.44-.95.96-1.89.28-3.78.61-5.65.96-.49.09-.84.54-.81,1.04s.43.9.93.94c1.71.12,3.6.25,5.53.47,0,.01,0,.03,0,.04-.04.32.08.63.29.84l-3.43.2c-.49.03-.89.41-.94.91-.03.36.13.69.4.89-1.52.53-2.91,1.2-4.16,2.03-.35.23-.52.65-.43,1.06.09.41.43.71.85.77.39.05.78.1,1.17.14-1.45.07-2.9.19-4.34.39-.49.07-.86.5-.86,1s.37.92.87.99c.85.11,1.7.24,2.54.37-.13.13-.25.29-.33.47-.19.4-.17.86.04,1.24.37.68,1.12.77,1.36.8.4.05.81.1,1.22.15,1.96.23,3.83.45,5.4,1.24-1.75.28-3.52.35-5.28.2-.56-.04-1.03.37-1.08.92-.04.55.36,1.03.92,1.08.66.05,1.32.08,1.97.08,1.59,0,3.18-.16,4.75-.47.26-.05,1.06-.21,1.38-.97.31-.74-.01-1.54-.85-2.1-1.39-.92-2.94-1.36-4.52-1.63.31,0,.63.02.94.04,1.49.3,2.97.62,4.44.97.51.12,1.03-.18,1.19-.68.15-.5-.11-1.04-.61-1.23-1.28-.48-2.62-.8-3.99-.97,1.93-.02,3.92-.04,5.88-.18.53-.04.93-.47.93-1,0-.17-.04-.33-.12-.46,1.35-.09,2.69-.23,4.03-.41ZM214.25,224.59c.19.02.38.04.57.07l-.76.05c.07-.03.13-.07.19-.12ZM210.93,227.15s.02-.02.04-.04c.7.11,1.41.24,2.11.39l-2.35.14c.11-.14.18-.3.2-.49Z"/>
  <path class="cls-1" d="M273.62,222.83c-5.45,0-46.13,27.4-48,37.79,0,0,1.33,7.09,4.78,9.06l-10.72,12,7.53,8.68-8.81,9.33,5.28,2.94s13.68-10.78,13.68-11.03-2.64-6.81-2.64-6.81l9.96-4.34s.09-8.17-3.4-10.72c0,0,36.09-12.68,38.13-19.06,2.04-6.38-.34-27.83-5.79-27.83Z"/>
</svg>