<?xml version="1.0" encoding="UTF-8"?>
<svg id="Layer_4" data-name="Layer 4" xmlns="http://www.w3.org/2000/svg" viewBox="0 0 400 400">
  <defs>
    <style>
      .cls-1 {
        fill: #f9efb8;
      }
    </style>
  </defs>
  <path class="cls-1" d="M286.08,172.46l-16.7,4.21,6.47-10.83-49.49,16.43-2.02,11.94c-7.68-4.51-16.99-7.37-27.13-7.83-27.5-1.27-50.62,15.46-51.63,37.36-.64,13.86,7.72,26.46,20.91,34.18l-14.65-.53s-.96-2.71-3.67-3.61c0,0-2.37,1.13-3.1,3.84,0,0-10.27,1.18-4.29,6.37,0,0,13.54,13.83,28.4,12.52-4.55,12.05-7.35,27.19,3.29,34.02-2.57.33-5.42,1.23-8.22,2.71-7.38,3.91-11.62,10.36-9.48,14.4s9.86,4.16,17.24.25c7.25-3.84,11.46-10.12,9.57-14.18,1.88.29,3.97.44,6.26.45h0s9.02,0,9.02,0h8.95c-.4,4.04,3.96,9.54,10.77,13.14,7.82,4.14,15.89,4.21,18.03.16,2.14-4.05-2.46-10.68-10.28-14.82-2-1.06-4.02-1.85-5.95-2.37,7.14-5.62,6.91-16.46,4.5-26.69,5.01.36,11.79.62,16.45.58,7.05-.06,5.87-3.25,5.87-3.25,4.01-.79,3.88-4.3,3.88-4.3-.99-3.5-21.86-10.62-32.84-14.15,16.49-5.8,28.21-18.67,28.93-34.12.29-6.28-1.27-12.29-4.29-17.72l13.73.25,31.46-38.42Z"/>
  <path class="cls-1" d="M143.64,194.52l15.69,3.4c4.73-3.85,10.47-6.89,16.86-8.9l6.99-13.66-35.35-28,2.26,13.5-8.72-8.42,2.27,42.07Z"/>
</svg>