<?xml version="1.0" encoding="UTF-8"?>
<svg id="Layer_4" data-name="Layer 4" xmlns="http://www.w3.org/2000/svg" viewBox="0 0 400 400">
  <defs>
    <style>
      .cls-1 {
        fill: #151515;
      }
    </style>
  </defs>
  <path class="cls-1" d="M174.99,261.59c-3.84,12.56,1.65,16.92,1.65,16.92,1.43-2.56,10-10.76,10-10.76.45,3.84,5.42,5.87,5.42,5.87,2.63-.6,6.02-5.42,6.02-5.42,3.31,7.15,8.65,11.51,8.65,11.51,2.26-3.01,6.99-15.72,6.99-15.72-19.48,1.88-38.74-2.41-38.74-2.41Z"/>
  <path class="cls-1" d="M177.33,225.22c1.65-4.61.59-9.41-2.31-12.12.45,1.33.46,2.91-.09,4.45-1.14,3.19-4.23,5-6.9,4.05-2.67-.96-3.91-4.32-2.77-7.51.41-1.16,1.08-2.13,1.9-2.85-3.29.92-6.27,3.69-7.67,7.6-2.1,5.89.18,12.09,5.11,13.85,4.93,1.76,10.63-1.58,12.73-7.47Z"/>
  <path class="cls-1" d="M231.34,223.87c-1.6-4.63-5.42-7.71-9.38-8.01,1.18.76,2.18,1.98,2.71,3.53,1.1,3.2-.17,6.55-2.86,7.48-2.68.92-5.75-.92-6.86-4.13-.4-1.16-.48-2.34-.31-3.41-1.99,2.77-2.59,6.8-1.24,10.73,2.04,5.91,7.7,9.32,12.65,7.61,4.95-1.71,7.31-7.88,5.27-13.79Z"/>
  <path class="cls-1" d="M228.91,165.86l-2.79,16.47c.08-.01.15-.02.23-.03v-.03s49.49-16.43,49.49-16.43l-6.47,10.83,16.7-4.21-31.46,38.42h-.14s0,0,0,0l19.25.35,37.69-63.86-82.51,18.49Z"/>
  <path class="cls-1" d="M147.83,147.38l35.19,27.87,6.11-11.92-63.63-44.68,2.03,72.43,16.15,3.5s0-.03.01-.05h-.05s-2.27-42.08-2.27-42.08l8.72,8.42-2.26-13.5Z"/>
  <path class="cls-1" d="M224.4,295.49c-.42,5.87-.68,6-.68,6l12.41-2.61,17,15.27,14.82-12.41-22.26-15.87-21.29,9.63Z"/>
</svg>