<?xml version="1.0" encoding="UTF-8"?>
<svg id="Layer_2" data-name="Layer 2" xmlns="http://www.w3.org/2000/svg" viewBox="0 0 400 400">
  <defs>
    <style>
      .cls-1 {
        fill: #131212;
      }
    </style>
  </defs>
  <path class="cls-1" d="M126.19,79.82c-.65-17.6-4.56-25.09-4.56-25.09-12.17,16.35-18.54,32.25-21.73,45.86,5.2-7.58,13.5-16,26.29-20.77Z"/>
  <path class="cls-1" d="M287.99,96.09c-15.9,1.53-29.6,3.47-41.4,5.7-2.88,10.95-9.1,29.23-20.27,38.41.19.55.39,1.09.58,1.64,39.26-14.03,61.08-45.74,61.08-45.74Z"/>
  <path class="cls-1" d="M290.17,260.97l-13.07-16.33-.33,6.79-9.3-6.97,5.3,9.22-9.57-7.1,8.23,10.33-13.09,5.77c1.91,4.61,5.54,14.73,4.88,23.48l12.71-1.36-9.52-11.91,23.75-11.91Z"/>
  <path class="cls-1" d="M150.07,139.25c1.48,1.02,2.45,2.72,2.45,4.65,0,3.11-2.52,5.64-5.64,5.64s-5.64-2.52-5.64-5.64c0-.29.03-.58.07-.86-1.44,1.77-2.31,4.03-2.31,6.5,0,5.7,4.62,10.32,10.32,10.32s10.32-4.62,10.32-10.32-4.23-9.91-9.59-10.29Z"/>
  <path class="cls-1" d="M96.52,156.96c-1.03,2.1-3.24,3.13-4.95,2.3s-2.26-3.21-1.23-5.31c.09-.18.2-.35.31-.52-1.47,1.34-2.94,3.33-4.11,5.72-2.55,5.22-2.72,10.37-.38,11.52s6.3-2.16,8.85-7.38c1.47-3.02,2.15-6.01,2-8.22-.04.62-.19,1.27-.49,1.89Z"/>
</svg>