<?xml version="1.0" encoding="UTF-8"?>
<svg id="Layer_2" data-name="Layer 2" xmlns="http://www.w3.org/2000/svg" viewBox="0 0 400 400">
  <defs>
    <style>
      .cls-1 {
        fill: #e06d5d;
      }
    </style>
  </defs>
  <ellipse class="cls-1" cx="168.73" cy="176.85" rx="17" ry="13.95" transform="translate(-36.14 310.18) rotate(-79.4)"/>
  <path class="cls-1" d="M77.62,174.24h0c-1.19,7.21.16,13.48,2.77,18.81.01.03.03.06.04.08.56,1.14,1.18,2.23,1.85,3.28.04.06.08.12.12.18.65,1.01,1.34,1.98,2.06,2.91.07.09.13.17.2.26.36.45.72.9,1.09,1.34,0,0,0,0,0,0,.36.42.73.83,1.1,1.24.09.1.18.19.26.29.37.4.75.79,1.12,1.17,0,0,0,0,0,0,2.31-3.74,3.09-9.37,1.7-15.23-1.86-7.87-7.02-13.62-12.32-14.32Z"/>
</svg>