<?xml version="1.0" encoding="UTF-8"?>
<svg id="Layer_4" data-name="Layer 4" xmlns="http://www.w3.org/2000/svg" viewBox="0 0 400 400">
  <defs>
    <style>
      .cls-1 {
        opacity: .5;
      }

      .cls-1, .cls-2 {
        fill: #dca0a0;
      }
    </style>
  </defs>
  <path class="cls-2" d="M238.51,240.83c-2.67-2.79-9-1.07-14.15,3.84-5.15,4.92-7.16,11.17-4.49,13.96.6.63,1.4,1.02,2.33,1.21,7.34-3.61,13.39-8.75,17.44-14.89.17-1.67-.17-3.12-1.13-4.12Z"/>
  <path class="cls-1" d="M238.51,240.83c-2.67-2.79-9-1.07-14.15,3.84-5.15,4.92-7.16,11.17-4.49,13.96.6.63,1.4,1.02,2.33,1.21,7.34-3.61,13.39-8.75,17.44-14.89.17-1.67-.17-3.12-1.13-4.12Z"/>
  <path class="cls-2" d="M160.65,237.2c-3.62-6.27-9.97-9.38-14.18-6.95-.15.09-.28.19-.42.29,1.48,8.55,6.37,16.34,13.58,22.39,4.17-2.46,4.63-9.48,1.02-15.72Z"/>
  <path class="cls-1" d="M160.65,237.2c-3.62-6.27-9.97-9.38-14.18-6.95-.15.09-.28.19-.42.29,1.48,8.55,6.37,16.34,13.58,22.39,4.17-2.46,4.63-9.48,1.02-15.72Z"/>
</svg>