<?xml version="1.0" encoding="UTF-8"?>
<svg id="Layer_5" data-name="Layer 5" xmlns="http://www.w3.org/2000/svg" viewBox="0 0 400 400">
  <defs>
    <style>
      .cls-1 {
        fill: #ebb55b;
      }
    </style>
  </defs>
  <path class="cls-1" d="M165.35,159.64c.96-4.26,1.49-8.71,1.49-13.29,0-31.12-23.55-56.34-52.6-56.34s-52.6,25.22-52.6,56.34c0,7.61,1.42,14.87,3.97,21.49-17.07-1.03-42.7-1.05-48.71,7.45,0,0-7.41,17.74,48.74,29.87,0,0-21.79,71.42,33.02,86.47h.59c.43,12.35,0,33.46-6.88,44.47,0,0-16.51,12.51-7.32,21.71,0,0,2.04,8.17,9.7,4.09,0,0,27.57,8.94,25.79-52.34,0,0,1.42-12.33-5.1-20.5,4.27-8.18,20.56-32.23,59.13-18.31,0,0,.02-.35.05-.99,4.79,11.68,11.21,8.99,11.21,8.99,25.19-8.34-7.49-76.26-7.49-76.26-2.47-2.11-4.02-2.28-5-1.84-.57-2.8-1.28-4.98-2.15-6.27,0,0,30.55,3.37,39.98-13.48,0,0,6.24-19.99-45.84-21.27Z"/>
</svg>