<?xml version="1.0" encoding="UTF-8"?>
<svg id="Layer_2" data-name="Layer 2" xmlns="http://www.w3.org/2000/svg" viewBox="0 0 400 400">
  <defs>
    <style>
      .cls-1 {
        fill: #f3d77b;
      }
    </style>
  </defs>
  <path class="cls-1" d="M287.99,204.03l75.39-50.41s-10.31-71.18-16.27-69.29c0,0-87.6,79.61-90.21,90.21l18.59,38.21-24.55,18.45,20.48,25.71-13.23,5.83c-8.52-18.3-34.89-39.02-52.65-94.19-2.63-8.16-6.23-14.85-10.48-20.32,59.12-3.04,92.91-52.13,92.91-52.13-80.24,7.7-104.44,26.1-111.74,36.53-24.99-12.91-54.62-6.28-54.62-6.28,10.5-51.64,0-71.62,0-71.62-33.3,44.74-23.21,86.18-23.21,86.18-48.88,46.68,1.23,71.97,5.32,73.92-11.11,2.07-31.11,6.36-36.99,11.31,0,0-2.03-1.14-5.59-1,0,0-.44-.15,0,1.67.44,1.82,0,1.82,0,1.82,0,0-4.94,1.96-4.79,3.27,0,0,.51,2.32,3.2,3.99,0,0-4.36,3.85-3.7,5.3,0,0,1.74,3.12,4.36,1.96,0,0-.51,1.31-.94,4.79,0,0,1.74.73,4.87-.44,0,0,35.94,8.06,53.1,6.1,2.88,11.94,4.86,21.92,4.86,21.92-3.39,38.96,16.27,47.28,30.54,48.31.16,6.26,1.5,15.53,7.85,17.14,0,0,5.16,7.05,6.1-1.09,0,0,2.32,2.18,1.53-17,0,0,11.47-8.63,26.15-8.36,5.88,1.63,11.1,2.96,15.72,4.03,0,0,0,0,0,0,0,0,0,0,0,0,16.21,3.76,25.08,4.42,29.83,4.21.9,7.46,3.49,17.14,10.81,18.93,0,0,7.05,9.01,6.9-1.6,0,0,5.45,9.52-.2-23.04,6.19-6.54,7.67-18.95,6.58-30.98l12.04-1.29-9.52-11.91,23.75-11.91-17.43-21.79,23.24-18.16-7.99-17Z"/>
</svg>