<?xml version="1.0" encoding="UTF-8"?>
<svg id="Layer_8" data-name="Layer 8" xmlns="http://www.w3.org/2000/svg" viewBox="0 0 400 400">
  <defs>
    <style>
      .cls-1 {
        fill: #d8d0ad;
      }
    </style>
  </defs>
  <path class="cls-1" d="M302.61,208.03s-8.94-8.55-9.38-10.72c-.45-2.17-8.4-17.81-14.53-18.49-6.13-.68-20.6.68-20.6.68-10.54,3.41-18.39,4.07-23.95,3.69-2.17-2.84-4.87-5.62-8.22-8.31-.39-.32-.78-.62-1.17-.93h0s-9.51-12.41-18.11-16.24c0,0,4.85-40,1.96-46.98,0,0,4.85-5.62,5.02-8.51.17-2.89-5.36-7.74-5.36-7.74l6.04-15.06s3.57-7.83-13.53,4.85c0,0-.85,8.51-.43,11.91,0,0-11.74,9.53-13.53,14.98-1.79,5.45-2.3,17.45-2.3,17.45,0,0-12.26,14.6-10.17,28.81-1.03.49-1.53.87-1.53.87,0,0-33.45,19.4-32.43,28.6,0,0,.1,28.11,18.21,46.15-6.67,13.51-29.07,60.1-25.48,69.46l-18.89-.64,23.11,9.32s3.19,8.17,3.57,8.55c.38.38,20.17-6.77,20.17-6.77l16.6,7.53,8.04-6.51,31.15,9.19-1.28-9.57,28.09.13-25.28-14.04s-8.17-43.15-23.49-43.79c0,0,9.64-.17-4.8-8.49,9.26,1.02,20.24.3,33.26-2.83,0,0,12.33-12.73,16.66-29.1,11.26-7.37,26.82-16.98,32.25-17.6,8.87-1.02,22.34,14.49,27.83,19.15,5.49,4.66,2.49-9,2.49-9Z"/>
</svg>